<mxfile host="app.diagrams.net" modified="2023-08-24T14:05:35.541Z" agent="Mozilla/5.0 (Windows NT 10.0; Win64; x64) AppleWebKit/537.36 (KHTML, like Gecko) Chrome/116.0.0.0 Safari/537.36" etag="hkd1B0ALskwq6L-LomA_" version="21.6.9" type="github">
  <diagram name="Página-1" id="-apf0sJwK0F9Y9vT20qN">
    <mxGraphModel dx="1514" dy="796" grid="1" gridSize="10" guides="1" tooltips="1" connect="1" arrows="1" fold="1" page="1" pageScale="1" pageWidth="827" pageHeight="1169" math="0" shadow="0">
      <root>
        <mxCell id="0" />
        <mxCell id="1" parent="0" />
        <mxCell id="uHy2JobFsvIPzoVKBWZk-1" value="Vivienda" style="rounded=0;whiteSpace=wrap;html=1;" parent="1" vertex="1">
          <mxGeometry x="240" y="290" width="90" height="40" as="geometry" />
        </mxCell>
        <mxCell id="uHy2JobFsvIPzoVKBWZk-3" value="Habitante" style="rounded=0;whiteSpace=wrap;html=1;" parent="1" vertex="1">
          <mxGeometry x="560" y="290" width="90" height="30" as="geometry" />
        </mxCell>
        <mxCell id="uHy2JobFsvIPzoVKBWZk-4" value="num_documento" style="ellipse;whiteSpace=wrap;html=1;" parent="1" vertex="1">
          <mxGeometry x="474" y="220" width="110" height="40" as="geometry" />
        </mxCell>
        <mxCell id="uHy2JobFsvIPzoVKBWZk-5" value="" style="endArrow=none;html=1;rounded=0;" parent="1" target="uHy2JobFsvIPzoVKBWZk-4" edge="1">
          <mxGeometry width="50" height="50" relative="1" as="geometry">
            <mxPoint x="560" y="290" as="sourcePoint" />
            <mxPoint x="610" y="240" as="targetPoint" />
          </mxGeometry>
        </mxCell>
        <mxCell id="uHy2JobFsvIPzoVKBWZk-6" value="tipo_documento" style="ellipse;whiteSpace=wrap;html=1;" parent="1" vertex="1">
          <mxGeometry x="560" y="180" width="100" height="40" as="geometry" />
        </mxCell>
        <mxCell id="uHy2JobFsvIPzoVKBWZk-7" value="" style="endArrow=none;html=1;rounded=0;entryX=0.332;entryY=0.024;entryDx=0;entryDy=0;entryPerimeter=0;exitX=0.5;exitY=1;exitDx=0;exitDy=0;" parent="1" source="uHy2JobFsvIPzoVKBWZk-6" target="uHy2JobFsvIPzoVKBWZk-3" edge="1">
          <mxGeometry width="50" height="50" relative="1" as="geometry">
            <mxPoint x="450" y="360" as="sourcePoint" />
            <mxPoint x="500" y="310" as="targetPoint" />
          </mxGeometry>
        </mxCell>
        <mxCell id="uHy2JobFsvIPzoVKBWZk-8" value="Fecha de&amp;nbsp;&lt;br&gt;nacimiento" style="ellipse;whiteSpace=wrap;html=1;" parent="1" vertex="1">
          <mxGeometry x="620" y="220" width="110" height="40" as="geometry" />
        </mxCell>
        <mxCell id="uHy2JobFsvIPzoVKBWZk-10" value="" style="endArrow=none;html=1;rounded=0;entryX=0.232;entryY=0.9;entryDx=0;entryDy=0;entryPerimeter=0;exitX=0.5;exitY=0;exitDx=0;exitDy=0;" parent="1" source="uHy2JobFsvIPzoVKBWZk-3" target="uHy2JobFsvIPzoVKBWZk-8" edge="1">
          <mxGeometry width="50" height="50" relative="1" as="geometry">
            <mxPoint x="450" y="360" as="sourcePoint" />
            <mxPoint x="500" y="310" as="targetPoint" />
          </mxGeometry>
        </mxCell>
        <mxCell id="uHy2JobFsvIPzoVKBWZk-11" value="Nombre" style="ellipse;whiteSpace=wrap;html=1;" parent="1" vertex="1">
          <mxGeometry x="690" y="270" width="60" height="20" as="geometry" />
        </mxCell>
        <mxCell id="uHy2JobFsvIPzoVKBWZk-12" value="Apellido" style="ellipse;whiteSpace=wrap;html=1;" parent="1" vertex="1">
          <mxGeometry x="680" y="300" width="60" height="20" as="geometry" />
        </mxCell>
        <mxCell id="uHy2JobFsvIPzoVKBWZk-13" value="" style="endArrow=none;html=1;rounded=0;entryX=0;entryY=0.5;entryDx=0;entryDy=0;exitX=0.87;exitY=-0.014;exitDx=0;exitDy=0;exitPerimeter=0;" parent="1" source="uHy2JobFsvIPzoVKBWZk-3" target="uHy2JobFsvIPzoVKBWZk-11" edge="1">
          <mxGeometry width="50" height="50" relative="1" as="geometry">
            <mxPoint x="650" y="310" as="sourcePoint" />
            <mxPoint x="700" y="260" as="targetPoint" />
          </mxGeometry>
        </mxCell>
        <mxCell id="uHy2JobFsvIPzoVKBWZk-14" value="" style="endArrow=none;html=1;rounded=0;entryX=0.002;entryY=0.286;entryDx=0;entryDy=0;entryPerimeter=0;exitX=0.999;exitY=0.329;exitDx=0;exitDy=0;exitPerimeter=0;" parent="1" source="uHy2JobFsvIPzoVKBWZk-3" target="uHy2JobFsvIPzoVKBWZk-12" edge="1">
          <mxGeometry width="50" height="50" relative="1" as="geometry">
            <mxPoint x="650" y="310" as="sourcePoint" />
            <mxPoint x="700" y="260" as="targetPoint" />
          </mxGeometry>
        </mxCell>
        <mxCell id="uHy2JobFsvIPzoVKBWZk-15" value="Edad" style="ellipse;whiteSpace=wrap;html=1;shadow=0;strokeColor=default;dashed=1;" parent="1" vertex="1">
          <mxGeometry x="685" y="330" width="70" height="20" as="geometry" />
        </mxCell>
        <mxCell id="uHy2JobFsvIPzoVKBWZk-16" value="" style="endArrow=none;html=1;rounded=0;entryX=0.004;entryY=0.329;entryDx=0;entryDy=0;entryPerimeter=0;exitX=1;exitY=0.75;exitDx=0;exitDy=0;" parent="1" source="uHy2JobFsvIPzoVKBWZk-3" target="uHy2JobFsvIPzoVKBWZk-15" edge="1">
          <mxGeometry width="50" height="50" relative="1" as="geometry">
            <mxPoint x="650" y="310" as="sourcePoint" />
            <mxPoint x="700" y="260" as="targetPoint" />
          </mxGeometry>
        </mxCell>
        <mxCell id="uHy2JobFsvIPzoVKBWZk-17" value="Municipio" style="rounded=0;whiteSpace=wrap;html=1;" parent="1" vertex="1">
          <mxGeometry x="340" y="520" width="94" height="40" as="geometry" />
        </mxCell>
        <mxCell id="uHy2JobFsvIPzoVKBWZk-18" value="" style="endArrow=none;html=1;rounded=0;entryX=0.5;entryY=1;entryDx=0;entryDy=0;exitX=0.389;exitY=0.129;exitDx=0;exitDy=0;exitPerimeter=0;" parent="1" source="uHy2JobFsvIPzoVKBWZk-19" target="uHy2JobFsvIPzoVKBWZk-1" edge="1">
          <mxGeometry width="50" height="50" relative="1" as="geometry">
            <mxPoint x="370" y="430" as="sourcePoint" />
            <mxPoint x="420" y="380" as="targetPoint" />
          </mxGeometry>
        </mxCell>
        <mxCell id="uHy2JobFsvIPzoVKBWZk-20" value="" style="endArrow=none;html=1;rounded=0;entryX=0.666;entryY=0.843;entryDx=0;entryDy=0;exitX=0.5;exitY=0;exitDx=0;exitDy=0;entryPerimeter=0;" parent="1" source="uHy2JobFsvIPzoVKBWZk-17" target="uHy2JobFsvIPzoVKBWZk-19" edge="1">
          <mxGeometry width="50" height="50" relative="1" as="geometry">
            <mxPoint x="387" y="520" as="sourcePoint" />
            <mxPoint x="285" y="330" as="targetPoint" />
          </mxGeometry>
        </mxCell>
        <mxCell id="uHy2JobFsvIPzoVKBWZk-19" value="" style="rhombus;whiteSpace=wrap;html=1;" parent="1" vertex="1">
          <mxGeometry x="311" y="400" width="50" height="40" as="geometry" />
        </mxCell>
        <mxCell id="uHy2JobFsvIPzoVKBWZk-21" value="N" style="text;html=1;strokeColor=none;fillColor=none;align=center;verticalAlign=middle;whiteSpace=wrap;rounded=0;" parent="1" vertex="1">
          <mxGeometry x="270" y="330" width="60" height="25" as="geometry" />
        </mxCell>
        <mxCell id="uHy2JobFsvIPzoVKBWZk-22" value="1" style="text;html=1;strokeColor=none;fillColor=none;align=center;verticalAlign=middle;whiteSpace=wrap;rounded=0;" parent="1" vertex="1">
          <mxGeometry x="361" y="497" width="60" height="30" as="geometry" />
        </mxCell>
        <mxCell id="uHy2JobFsvIPzoVKBWZk-23" value="Pertenecen a" style="text;html=1;strokeColor=none;fillColor=none;align=center;verticalAlign=middle;whiteSpace=wrap;rounded=0;" parent="1" vertex="1">
          <mxGeometry x="330" y="380" width="60" height="30" as="geometry" />
        </mxCell>
        <mxCell id="uHy2JobFsvIPzoVKBWZk-24" value="Nombre" style="ellipse;whiteSpace=wrap;html=1;" parent="1" vertex="1">
          <mxGeometry x="310" y="572" width="70" height="25" as="geometry" />
        </mxCell>
        <mxCell id="uHy2JobFsvIPzoVKBWZk-25" value="Intendente" style="ellipse;whiteSpace=wrap;html=1;" parent="1" vertex="1">
          <mxGeometry x="394" y="572" width="76" height="28" as="geometry" />
        </mxCell>
        <mxCell id="uHy2JobFsvIPzoVKBWZk-26" value="" style="endArrow=none;html=1;rounded=0;entryX=0.947;entryY=1.04;entryDx=0;entryDy=0;entryPerimeter=0;exitX=0.5;exitY=0;exitDx=0;exitDy=0;" parent="1" source="uHy2JobFsvIPzoVKBWZk-25" target="uHy2JobFsvIPzoVKBWZk-17" edge="1">
          <mxGeometry width="50" height="50" relative="1" as="geometry">
            <mxPoint x="400" y="590" as="sourcePoint" />
            <mxPoint x="450" y="540" as="targetPoint" />
          </mxGeometry>
        </mxCell>
        <mxCell id="uHy2JobFsvIPzoVKBWZk-27" value="" style="endArrow=none;html=1;rounded=0;exitX=0.606;exitY=0.007;exitDx=0;exitDy=0;exitPerimeter=0;entryX=0.271;entryY=1.026;entryDx=0;entryDy=0;entryPerimeter=0;" parent="1" source="uHy2JobFsvIPzoVKBWZk-24" target="uHy2JobFsvIPzoVKBWZk-17" edge="1">
          <mxGeometry width="50" height="50" relative="1" as="geometry">
            <mxPoint x="320" y="600" as="sourcePoint" />
            <mxPoint x="370" y="550" as="targetPoint" />
          </mxGeometry>
        </mxCell>
        <mxCell id="uHy2JobFsvIPzoVKBWZk-28" value="Dirección" style="ellipse;whiteSpace=wrap;html=1;" parent="1" vertex="1">
          <mxGeometry x="220" y="230" width="80" height="40" as="geometry" />
        </mxCell>
        <mxCell id="uHy2JobFsvIPzoVKBWZk-29" value="" style="endArrow=none;html=1;rounded=0;entryX=0.5;entryY=1;entryDx=0;entryDy=0;exitX=0.333;exitY=-0.017;exitDx=0;exitDy=0;exitPerimeter=0;" parent="1" source="uHy2JobFsvIPzoVKBWZk-1" target="uHy2JobFsvIPzoVKBWZk-28" edge="1">
          <mxGeometry width="50" height="50" relative="1" as="geometry">
            <mxPoint x="210" y="320" as="sourcePoint" />
            <mxPoint x="260" y="270" as="targetPoint" />
          </mxGeometry>
        </mxCell>
        <mxCell id="uHy2JobFsvIPzoVKBWZk-30" value="Calle" style="ellipse;whiteSpace=wrap;html=1;" parent="1" vertex="1">
          <mxGeometry x="150" y="185" width="70" height="30" as="geometry" />
        </mxCell>
        <mxCell id="uHy2JobFsvIPzoVKBWZk-31" value="Numero" style="ellipse;whiteSpace=wrap;html=1;" parent="1" vertex="1">
          <mxGeometry x="210" y="160" width="70" height="30" as="geometry" />
        </mxCell>
        <mxCell id="uHy2JobFsvIPzoVKBWZk-32" value="Localidad" style="ellipse;whiteSpace=wrap;html=1;" parent="1" vertex="1">
          <mxGeometry x="260" y="190" width="70" height="30" as="geometry" />
        </mxCell>
        <mxCell id="uHy2JobFsvIPzoVKBWZk-33" value="Código &lt;br&gt;Postal" style="ellipse;whiteSpace=wrap;html=1;" parent="1" vertex="1">
          <mxGeometry x="120" y="220" width="80" height="40" as="geometry" />
        </mxCell>
        <mxCell id="uHy2JobFsvIPzoVKBWZk-34" value="" style="endArrow=none;html=1;rounded=0;entryX=0.5;entryY=1;entryDx=0;entryDy=0;exitX=0.333;exitY=0.033;exitDx=0;exitDy=0;exitPerimeter=0;" parent="1" source="uHy2JobFsvIPzoVKBWZk-28" target="uHy2JobFsvIPzoVKBWZk-31" edge="1">
          <mxGeometry width="50" height="50" relative="1" as="geometry">
            <mxPoint x="210" y="220" as="sourcePoint" />
            <mxPoint x="260" y="170" as="targetPoint" />
          </mxGeometry>
        </mxCell>
        <mxCell id="uHy2JobFsvIPzoVKBWZk-35" value="" style="endArrow=none;html=1;rounded=0;entryX=0.01;entryY=0.514;entryDx=0;entryDy=0;entryPerimeter=0;exitX=1;exitY=0.5;exitDx=0;exitDy=0;" parent="1" source="uHy2JobFsvIPzoVKBWZk-33" target="uHy2JobFsvIPzoVKBWZk-28" edge="1">
          <mxGeometry width="50" height="50" relative="1" as="geometry">
            <mxPoint x="190" y="240" as="sourcePoint" />
            <mxPoint x="240" y="190" as="targetPoint" />
          </mxGeometry>
        </mxCell>
        <mxCell id="uHy2JobFsvIPzoVKBWZk-36" value="" style="endArrow=none;html=1;rounded=0;exitX=0.938;exitY=0.767;exitDx=0;exitDy=0;exitPerimeter=0;" parent="1" source="uHy2JobFsvIPzoVKBWZk-30" target="uHy2JobFsvIPzoVKBWZk-28" edge="1">
          <mxGeometry width="50" height="50" relative="1" as="geometry">
            <mxPoint x="180" y="240" as="sourcePoint" />
            <mxPoint x="230" y="190" as="targetPoint" />
          </mxGeometry>
        </mxCell>
        <mxCell id="uHy2JobFsvIPzoVKBWZk-37" value="" style="endArrow=none;html=1;rounded=0;entryX=0.5;entryY=1;entryDx=0;entryDy=0;exitX=0.763;exitY=0.075;exitDx=0;exitDy=0;exitPerimeter=0;" parent="1" source="uHy2JobFsvIPzoVKBWZk-28" target="uHy2JobFsvIPzoVKBWZk-32" edge="1">
          <mxGeometry width="50" height="50" relative="1" as="geometry">
            <mxPoint x="210" y="220" as="sourcePoint" />
            <mxPoint x="260" y="170" as="targetPoint" />
          </mxGeometry>
        </mxCell>
        <mxCell id="uHy2JobFsvIPzoVKBWZk-38" value="Mts. cuadrados&lt;br&gt;terreno" style="ellipse;whiteSpace=wrap;html=1;" parent="1" vertex="1">
          <mxGeometry x="90" y="280" width="120" height="50" as="geometry" />
        </mxCell>
        <mxCell id="uHy2JobFsvIPzoVKBWZk-39" value="Mts. cuadrados&lt;br&gt;edificados" style="ellipse;whiteSpace=wrap;html=1;" parent="1" vertex="1">
          <mxGeometry x="120" y="340" width="110" height="50" as="geometry" />
        </mxCell>
        <mxCell id="uHy2JobFsvIPzoVKBWZk-40" value="" style="endArrow=none;html=1;rounded=0;exitX=1;exitY=0.5;exitDx=0;exitDy=0;entryX=-0.007;entryY=0.375;entryDx=0;entryDy=0;entryPerimeter=0;" parent="1" source="uHy2JobFsvIPzoVKBWZk-38" target="uHy2JobFsvIPzoVKBWZk-1" edge="1">
          <mxGeometry width="50" height="50" relative="1" as="geometry">
            <mxPoint x="210" y="320" as="sourcePoint" />
            <mxPoint x="260" y="270" as="targetPoint" />
          </mxGeometry>
        </mxCell>
        <mxCell id="uHy2JobFsvIPzoVKBWZk-41" value="" style="endArrow=none;html=1;rounded=0;exitX=0.545;exitY=0;exitDx=0;exitDy=0;exitPerimeter=0;entryX=0;entryY=1;entryDx=0;entryDy=0;" parent="1" source="uHy2JobFsvIPzoVKBWZk-39" target="uHy2JobFsvIPzoVKBWZk-1" edge="1">
          <mxGeometry width="50" height="50" relative="1" as="geometry">
            <mxPoint x="220" y="370" as="sourcePoint" />
            <mxPoint x="270" y="320" as="targetPoint" />
          </mxGeometry>
        </mxCell>
      </root>
    </mxGraphModel>
  </diagram>
</mxfile>
